<svg xmlns="http://www.w3.org/2000/svg" version="1.1" xmlns:xlink="http://www.w3.org/1999/xlink" xmlns:svgjs="http://svgjs.dev/svgjs" width="1440" height="560" preserveAspectRatio="none" viewBox="0 0 1440 560"><g mask="url(&quot;#SvgjsMask1000&quot;)" fill="none"><rect width="1440" height="560" x="0" y="0" fill="#0e2a47"></rect><path d="M 0,258 C 57.6,222.2 172.8,78.2 288,79 C 403.2,79.8 460.8,276.8 576,262 C 691.2,247.2 748.8,21.8 864,5 C 979.2,-11.8 1036.8,164.6 1152,178 C 1267.2,191.4 1382.4,93.2 1440,72L1440 560L0 560z" fill="#184a7e"></path><path d="M 0,288 C 96,318.2 288,423.4 480,439 C 672,454.6 768,368.4 960,366 C 1152,363.6 1344,414.8 1440,427L1440 560L0 560z" fill="#2264ab"></path></g><defs><mask id="SvgjsMask1000"><rect width="1440" height="560" fill="#ffffff"></rect></mask></defs></svg>